<svg id="Layer_1" data-name="Layer 1" xmlns="http://www.w3.org/2000/svg" viewBox="0 0 97 87.21"><defs><style>.cls-1{fill:#fec80f;}</style></defs><path class="cls-1" d="M56.62,18.64h0A26.24,26.24,0,0,0,30.37,44.88h0A26.24,26.24,0,0,0,56.62,71.12h0A26.24,26.24,0,0,0,82.86,44.88h0A26.24,26.24,0,0,0,56.62,18.64ZM41.43,43.19a1.15,1.15,0,0,1,1.63-1.63,5.31,5.31,0,0,0,3.86,2,5.25,5.25,0,0,0,4-1.7c1-1.08,2.64.55,1.63,1.63a7.39,7.39,0,0,1-11.12-.29ZM64.81,60a12.05,12.05,0,0,0-16.38-.12c-1.09,1-2.73-.63-1.63-1.63a14.36,14.36,0,0,1,19.64.12C67.53,59.34,65.89,61,64.81,60Zm7-16.48a7.39,7.39,0,0,1-11.12-.29,1.15,1.15,0,1,1,1.63-1.63,5.31,5.31,0,0,0,3.86,2,5.25,5.25,0,0,0,4-1.7C71.2,40.77,72.82,42.4,71.81,43.48Z"/></svg>