<svg id="Layer_1" data-name="Layer 1" xmlns="http://www.w3.org/2000/svg" viewBox="0 0 97 87.21"><defs><style>.cls-1{fill:#fec80f;}</style></defs><path class="cls-1" d="M47.06,20.81a1.6,1.6,0,0,1,2.88,0l6.28,12.71a4.05,4.05,0,0,0,3.05,2.21l14,2a1.63,1.63,0,0,1,1.3,1.1,1.61,1.61,0,0,1-.41,1.65L64,50.41A4.06,4.06,0,0,0,62.87,54l2.4,14a1.62,1.62,0,0,1-.64,1.57,1.61,1.61,0,0,1-1.7.12L50.39,63.07a4.05,4.05,0,0,0-3.77,0L34.07,69.66A1.61,1.61,0,0,1,31.73,68l2.4-14A4,4,0,0,0,33,50.41L22.81,40.52a1.62,1.62,0,0,1,.89-2.75l14-2a4.05,4.05,0,0,0,3.05-2.21Zm0,0"/></svg>